<svg width="207" height="36" viewBox="0 0 207 36" fill="none" xmlns="http://www.w3.org/2000/svg">
<path d="M24.0206 9.93682L23.9817 9.79192C23.4076 7.66079 22.0116 5.84438 20.1001 4.74112C18.1885 3.63786 15.9173 3.33783 13.7848 3.90685L8.041 5.44686C5.90987 6.02099 4.09346 7.41696 2.9902 9.32854C1.88694 11.2401 1.58691 13.5113 2.15593 15.6438L4.27118 23.5331C4.7743 25.4225 5.85028 27.1098 7.35122 28.3629L8.22464 29.0948L8.45774 29.9642C8.78513 31.1822 9.58279 32.2204 10.6754 32.8505C11.768 33.4806 13.066 33.6511 14.2843 33.3245L24.6205 30.5532C25.8392 30.2264 26.8782 29.4289 27.509 28.336C28.1397 27.2432 28.3104 25.9446 27.9837 24.7258L27.7863 23.9897L28.2256 23.2724C28.896 22.1711 29.3365 20.9454 29.5205 19.6692C29.7045 18.3931 29.6284 17.0929 29.2965 15.847L28.6576 13.4638C28.3833 12.4457 27.7792 11.5473 26.9398 10.9092C26.1003 10.271 25.073 9.92927 24.0187 9.93734L24.0206 9.93682ZM24.0063 28.2545L13.6681 31.0263C13.3665 31.1072 13.0518 31.1279 12.7422 31.0872C12.4325 31.0465 12.1339 30.9451 11.8634 30.789C11.3171 30.4737 10.9184 29.9543 10.7551 29.3451L25.6885 25.3412C25.7694 25.643 25.79 25.9577 25.7493 26.2674C25.7085 26.5772 25.6071 26.8758 25.4509 27.1464C25.2947 27.4169 25.0867 27.654 24.8388 27.8442C24.5909 28.0343 24.308 28.1737 24.0063 28.2545ZM27.0013 16.4624C27.2498 17.3969 27.3066 18.372 27.1684 19.3291C27.0301 20.2861 26.6996 21.2053 26.1968 22.0313L25.677 22.881L9.64335 27.1798L8.87823 26.539C7.75199 25.5981 6.94471 24.3315 6.56729 22.9133L5.51964 19.0058C6.32602 19.2236 7.17566 19.224 7.98229 19.0072L16.0233 16.8513C16.3279 16.7696 16.5876 16.5703 16.7452 16.2971C16.9029 16.024 16.9456 15.6994 16.8639 15.3948C16.7822 15.0902 16.5829 14.8305 16.3097 14.6728C16.0366 14.5152 15.712 14.4725 15.4074 14.5542L7.36735 16.7098C7.06556 16.7909 6.75075 16.8116 6.44092 16.771C6.13109 16.7303 5.83231 16.629 5.56166 16.4728C5.29102 16.3166 5.0538 16.1086 4.86359 15.8606C4.67337 15.6127 4.53388 15.3297 4.45308 15.0279C4.04658 13.5046 4.26087 11.8822 5.04896 10.5167C5.83705 9.15125 7.13457 8.15409 8.6569 7.74401L14.4007 6.204C15.924 5.7975 17.5464 6.01179 18.9119 6.79988C20.2773 7.58797 21.2745 8.88549 21.6846 10.4078L21.7234 10.5527C20.8064 11.0732 20.0879 11.8831 19.6803 12.8555C19.2727 13.828 19.1991 14.9082 19.4709 15.9269L20.3948 19.3727C20.4765 19.6773 20.6758 19.937 20.9489 20.0946C21.2221 20.2523 21.5467 20.295 21.8513 20.2133C22.1559 20.1316 22.4156 19.9323 22.5733 19.6591C22.7309 19.386 22.7736 19.0614 22.6919 18.7568L21.7681 15.311C21.6047 14.7017 21.6901 14.0523 22.0054 13.5059C22.3208 12.9595 22.8403 12.5608 23.4497 12.3974C24.059 12.234 24.7084 12.3194 25.2548 12.6347C25.8012 12.9501 26.2 13.4696 26.3633 14.079L27.0013 16.4624Z" fill="#E73539"/>
<path d="M62.3254 7.484H69.8774C71.6054 7.484 72.8961 7.94267 73.7494 8.86C74.6241 9.77733 75.0614 11.164 75.0614 13.02C75.0614 14.5773 74.8268 15.772 74.3574 16.604C73.8881 17.4147 73.1521 17.948 72.1494 18.204V18.332C73.2588 18.6093 74.0481 19.1427 74.5174 19.932C75.0081 20.7213 75.2534 21.948 75.2534 23.612C75.2534 25.5533 74.8374 27.0253 74.0054 28.028C73.1734 29.0093 71.7974 29.5 69.8774 29.5H62.3254V7.484ZM68.6934 16.476C69.2481 16.476 69.6641 16.412 69.9414 16.284C70.2401 16.156 70.4428 15.9107 70.5494 15.548C70.6774 15.1853 70.7414 14.6413 70.7414 13.916C70.7414 13.148 70.6881 12.5933 70.5814 12.252C70.4748 11.8893 70.2828 11.6547 70.0054 11.548C69.7281 11.42 69.2908 11.356 68.6934 11.356H66.6774V16.476H68.6934ZM68.7894 25.628C69.3868 25.628 69.8241 25.564 70.1014 25.436C70.3788 25.308 70.5708 25.0627 70.6774 24.7C70.7841 24.3373 70.8374 23.7613 70.8374 22.972C70.8374 22.1827 70.7841 21.6067 70.6774 21.244C70.5708 20.86 70.3681 20.604 70.0694 20.476C69.7921 20.348 69.3654 20.284 68.7894 20.284H66.6774V25.628H68.7894ZM84.3824 29.756C82.1638 29.756 80.5851 29.436 79.6464 28.796C78.7078 28.1347 78.1211 27.0893 77.8864 25.66C77.6518 24.2093 77.5344 21.82 77.5344 18.492C77.5344 15.1427 77.6518 12.7533 77.8864 11.324C78.1211 9.89467 78.7078 8.86 79.6464 8.22C80.5851 7.55867 82.1638 7.228 84.3824 7.228C86.6011 7.228 88.1798 7.55867 89.1184 8.22C90.0571 8.86 90.6438 9.89467 90.8784 11.324C91.1131 12.7533 91.2304 15.1427 91.2304 18.492C91.2304 21.82 91.1131 24.2093 90.8784 25.66C90.6438 27.0893 90.0571 28.1347 89.1184 28.796C88.1798 29.436 86.6011 29.756 84.3824 29.756ZM84.3824 25.884C85.2358 25.884 85.8118 25.7667 86.1104 25.532C86.4091 25.2973 86.6011 24.7213 86.6864 23.804C86.7718 22.8867 86.8144 21.116 86.8144 18.492C86.8144 15.868 86.7718 14.0973 86.6864 13.18C86.6011 12.2627 86.4091 11.6867 86.1104 11.452C85.8118 11.2173 85.2358 11.1 84.3824 11.1C83.5291 11.1 82.9531 11.2173 82.6544 11.452C82.3558 11.6867 82.1638 12.2627 82.0784 13.18C81.9931 14.0973 81.9504 15.868 81.9504 18.492C81.9504 21.116 81.9931 22.8867 82.0784 23.804C82.1638 24.7213 82.3558 25.2973 82.6544 25.532C82.9531 25.7667 83.5291 25.884 84.3824 25.884ZM102.761 29.5L99.9129 21.596H99.6569L96.8409 29.5H92.2329L96.8409 18.428L92.2969 7.484H97.0329L99.8169 15.068H100.041L102.825 7.484H107.433L102.953 18.3L107.529 29.5H102.761ZM119.031 29.212C118.583 29.3613 117.997 29.4893 117.271 29.596C116.567 29.7027 115.895 29.756 115.255 29.756C113.25 29.756 111.778 29.4253 110.839 28.764C109.901 28.1027 109.271 27.004 108.951 25.468C108.653 23.932 108.503 21.6067 108.503 18.492C108.503 15.3987 108.663 13.084 108.983 11.548C109.303 9.99067 109.933 8.88133 110.871 8.22C111.831 7.55867 113.293 7.228 115.255 7.228C115.959 7.228 116.653 7.28133 117.335 7.388C118.039 7.47333 118.583 7.59067 118.967 7.74V11.324C117.73 11.1747 116.791 11.1 116.151 11.1C115.063 11.1 114.306 11.2493 113.879 11.548C113.474 11.8253 113.207 12.4333 113.079 13.372C112.973 14.3107 112.919 16.0173 112.919 18.492C112.919 20.9667 112.973 22.6733 113.079 23.612C113.207 24.5507 113.474 25.1693 113.879 25.468C114.306 25.7453 115.063 25.884 116.151 25.884C117.133 25.884 118.093 25.8093 119.031 25.66V29.212ZM130.503 29.5V20.444H125.991V29.5H121.607V7.484H125.991V16.38H130.503V7.484H134.887V29.5H130.503ZM147.832 29.5L146.968 24.988H142.04L141.176 29.5H136.792L141.336 7.484H147.768L152.312 29.5H147.832ZM144.6 11.644H144.408L142.68 21.18H146.296L144.6 11.644ZM169.144 29.5V13.276H168.952L165.784 29.5H161.72L158.616 13.276H158.36V29.5H154.232V7.484H160.888L163.768 22.716H163.992L166.84 7.484H173.4V29.5H169.144ZM176.732 7.484H183.996C185.553 7.484 186.726 7.76133 187.516 8.316C188.326 8.87067 188.87 9.68133 189.148 10.748C189.425 11.7933 189.564 13.1907 189.564 14.94C189.564 16.6253 189.436 18.0013 189.18 19.068C188.924 20.1133 188.39 20.9453 187.58 21.564C186.769 22.1613 185.564 22.46 183.964 22.46H181.148V29.5H176.732V7.484ZM182.876 18.588C183.601 18.588 184.113 18.5027 184.412 18.332C184.71 18.1613 184.902 17.8413 184.988 17.372C185.094 16.8813 185.148 16.0707 185.148 14.94C185.148 13.8093 185.094 13.0093 184.988 12.54C184.902 12.0707 184.71 11.7613 184.412 11.612C184.134 11.4413 183.633 11.356 182.908 11.356H181.148V18.588H182.876ZM195.315 29.5V21.884L190.099 7.484H194.611L197.491 16.988H197.779L200.563 7.484H204.915L199.699 21.884V29.5H195.315Z" fill="black"/>
</svg>
